# xmcd
#
# Track frame offsets:
#	150
#	18207
#	35002
#	50334
#	66842
#	82334
#	99392
#	113592
#	130374
#	148262
#	163790
#	180792
#	197673
#	212783
#	229465
#	245775
#	258859
#	273432
#	287075
#	297400
#	311756
#
# Disc length: 4385 seconds
# Revision: 0
# Processed by: cddbd v1.5.2PL0 Copyright (c) Steve Scherf et al.
# Submitted via: dBpowerAMP V12.0
#
DISCID=43111f15
DTITLE=Various Artist - Country Radio May 2008
DYEAR=2008
DGENRE=Country
TTITLE0=Carrie Underwood - Last Name
TTITLE1=Aaron Lines - Moments That Matter
TTITLE2=Gary Allan - Learning How to Bend
TTITLE3=Eric Church - His Kinda Money My Kind Of Love
TTITLE4=Chuck Wicks - All I Ever Wanted
TTITLE5=Lonestar - Let Me Love You
TTITLE6=Luke Bryan - Country Man
TTITLE7=Rodney Atkins - Invisibly Shaken
TTITLE8=George Canyon - Seven Spanish Angels
TTITLE9=Shane Yellowbird - Drive Me Home
TTITLE10=Higgins The - Flower Child
TTITLE11=Garth Brooks - Midnight Sun
TTITLE12=Jamie Warren - She Just Loves To Dance
TTITLE13=Kenny Chesney - Better As A Memory
TTITLE14=Alan Jackson - Good Time
TTITLE15=Shooter Jennings - This Ol Wheel
TTITLE16=Adam Gregory - Crazy Days
TTITLE17=Emily West - Rocks In Your Shoes
TTITLE18=Corb Lund - Family Reunion
TTITLE19=Lost Trailers The - Holler Back
TTITLE20=Willie Mack - Golden Years
EXTD=
EXTT0=
EXTT1=
EXTT2=
EXTT3=
EXTT4=
EXTT5=
EXTT6=
EXTT7=
EXTT8=
EXTT9=
EXTT10=
EXTT11=
EXTT12=
EXTT13=
EXTT14=
EXTT15=
EXTT16=
EXTT17=
EXTT18=
EXTT19=
EXTT20=
PLAYORDER=
